<svg version="1.2" xmlns="http://www.w3.org/2000/svg" viewBox="0 0 1023.0009756097563 1023.0009756097563" width="1024" height="1024">
	<style>
		.s0 { fill: #273644 } 
		.s1 { fill: #60a5fa } 
		.s2 { fill: #3e6a9f } 
		.s3 { fill: #548ed5 } 
		.s4 { fill: #9aa2aa } 
		.s5 { fill: #e9eced } 
		.s6 { fill: #d5dbdd } 
		.s7 { fill: #afb8c0 } 
		.s8 { fill: #afb9c0 } 
		.s9 { fill: #d9dede } 
	</style>
	<g id="Layer 1">
		<path class="s0" d="m40.4 473.42l2.02 53.27 8.1 38.57 14.17 34.89 16.18 29.4 16.2 20.21 22.25 25.71 26.31 23.88 22.27 16.53 26.3 18.36 48.57 29.39 42.5 22.05 101.18 44.08 38.46 18.37 40.81 27.34 27.36 18.13 14.79 9.64 7.59-4.39 28.84-19.5 28.33-18.36 40.48-22.04 46.55-22.05 70.83-29.39 36.42-18.36 32.38-18.37 32.38-20.2 28.33-20.21 24.29-20.2h4.04v-3.68l24.29-22.04 20.23-23.89 20.24-31.22 12.15-27.55 8.09-23.87 6.07-34.91v-45.92l6.07 7.35 8.1 20.21 10.11 33.05 6.07 36.74v49.6l-6.07 36.73-12.14 36.74-12.14 25.71-20.24 29.4-22.25 25.71-36.44 33.07-34.4 23.87-26.31 14.7-32.38 16.52-34.39 14.7-56.67 23.89-32.38 14.68-46.54 22.05-46.56 25.72-32.38 20.2-22.25 14.69-24.29 16.53-8.09-3.67-36.43-23.88-30.36-18.37-42.5-23.88-36.42-18.36-44.52-22.05-56.66-23.87-50.6-22.04-30.35-14.7-38.45-23.87-26.31-20.22-30.36-27.55-20.23-23.87-24.29-38.58-14.16-33.07-8.1-29.38-4.05-27.55v-53.27l8.1-44.08 10.11-31.23"/>
		<path class="s1" d="m542.28 72.99l18.21 44.09 8.09 27.55 4.05 23.88-1.27 35.04-6.82 29.24-16.19 29.39-20.24 23.88-16.19 14.7-34.4 23.87-40.48 23.88-48.56 25.71-42.5 23.89-40.48 25.72-22.26 16.52-24.28 20.21-16.19 14.7-18.21 20.2-20.24 25.71-18.21 31.23-14.17 34.9-6.07 23.88-2.02 14.7v42.24l-14.17-11.02-24.28-27.55-16.2-25.72-10.12-22.04-6.06-22.04-2.03-11.03v-45.91l8.09-33.07 12.15-29.39 18.21-29.38 18.22-22.05 22.25-23.88 40.48-36.73 22.26-16.53 26.31-20.2 56.66-40.42 28.33-22.04 20.24-16.53 22.26-18.37 14.17-14.7 20.24-20.2 30.35-36.74 24.29-36.73 28.33-53.27 6.07-12.86"/>
		<path class="s1" d="m576.68 315.45l18.22-18.37 18.21-27.55 10.12-25.72 4.05-22.04v-31.23l-4.97-24.77 4.97 4.57 14.16 14.7 18.22 18.36 14.16 14.7 30.35 29.39 34.41 31.23 16.18 12.86 22.27 18.36 22.26 16.53 34.41 29.39 30.35 27.56 26.31 31.22 18.21 27.55c-0.1 0.1 12.14 27.55 12.14 27.55l8.09 27.55 2.03 14.7v40.41l-8.09 31.23-18.21 34.9-18.23 22.03-18.21 18.38-8.09 9.18-4.27 4.37c0 0-4.45-52.06-4.53-53.5l-6.65-30.74-8.84-30.33-14.16-25.72-18.21-25.71-22.26-25.73-42.5-38.57-28.33-20.2-32.38-22.04-50.59-29.39-48.58-23.88-22.25-11.03"/>
		<path class="s2" d="m569.39 322.81l25.51-25.73 18.21-27.55 10.12-25.72 4.05-22.04v-31.23l-4.97-24.77 4.97 4.57 14.16 14.7 18.22 18.36 14.16 14.7 30.35 29.39 34.41 31.23 16.18 12.86 22.27 18.36 22.26 16.53 34.41 29.39 30.35 27.56 26.31 31.22 3.54 5.84c12.94 15.37 24.12 40.02 30.64 62.56 9.45 32.74 5.36 41.63 5.92 38.81 3.18-15.44-63.95-156.37-364.1-196.15"/>
		<path class="s2" d="m40.4 473.42l2.02 53.27 8.1 38.57 14.17 34.89 16.18 29.4 16.2 20.21 22.25 25.71 26.31 23.88 22.27 16.53 26.3 18.36 48.57 29.39 42.5 22.05 16.46 7.2-6.22-1.14-77.02-18.92-70.83-22.04-52.62-20.2-42.5-20.21-24.08-14.79-6.27-14.65-3.57-12.81-4.65-16.55-3.99-27.61-0.04-53.34 8.18-44.06 10.05-31.15"/>
		<path class="s3" d="m888.33 686.49l24.29-22.04 20.23-23.89 20.24-31.22 12.15-27.55 8.09-23.87 6.07-34.91v-45.92l6.07 7.35 8.1 20.21 10.11 33.05 6.07 36.74v49.6l-6.07 36.73-10.11 31.23-28.33 18.37-50.52 23.21-50.63 18.38-82.87 25.71-50.55 11.52-8.55 1.73 6.52-2.62 38.27-19.15 32.38-18.37 32.38-20.2 28.33-20.21 24.29-20.2"/>
		<path id="Shape 7" fill-rule="evenodd" class="s0" d="m508.22 350.08l-0.17 364.48-205.97-112.73z"/>
		<path id="Shape 8" fill-rule="evenodd" class="s0" d="m508.24 350.04l173.65 208.77-173.64 117.1z"/>
		<path id="Shape 1" fill-rule="evenodd" class="s4" d="m436.89 673.74l71.34 31.35-1.88 161.9z"/>
		<path class="s5" d="m681.98 558.8l26.23 35.15 8.85 11.98 3.48 4.98-6.32 12.04-57.56 118.56-26.56 50.39-7.58 5.02 8.18-18.12 22.93-46.42 33.32-69.92 27.9-53.01-6.3-9.52-14.06-21.31-8.33-12.55"/>
		<path id="Shape 5" fill-rule="evenodd" class="s6" d="m681.98 558.65l32.91 50.74-92.28 187.49-116.27 70.07"/>
		<path id="Shape 6" fill-rule="evenodd" class="s7" d="m523.22 665.72l158.76-107.03-166.78 293.45-8.86 14.81 1.89-191.02"/>
		<path id="Shape 3" fill-rule="evenodd" class="s8" d="m302 601.7l135.25 72.19 69.07 193.04-7.14-4.62-112.49-72.08z"/>
		<path id="Shape 4" fill-rule="evenodd" class="s9" d="m508.23 350v331.04l-81.25-111.02z"/>
	</g>
</svg>